<svg width="36" height="52" viewBox="0 0 36 52" fill="none" xmlns="http://www.w3.org/2000/svg">
<rect width="36" height="52" rx="18" fill="#E3FFE8"/>
<path fill-rule="evenodd" clip-rule="evenodd" d="M12 35.1667H24C26.2091 35.1667 28 33.3427 28 31.0927C28 28.8426 26.2091 27.0186 24 27.0186V31.0927H12V27.0186C9.79086 27.0186 8 28.8426 8 31.0927C8 33.3427 9.79086 35.1667 12 35.1667Z" fill="#55F570"/>
<path opacity="0.4" d="M24 18.8706V31.0928H12V18.8706C12 17.7455 12.8954 16.8335 14 16.8335H22C23.1046 16.8335 24 17.7455 24 18.8706Z" fill="#55F570"/>
<path fill-rule="evenodd" clip-rule="evenodd" d="M17.25 25.5963L16.5303 24.8633C16.2374 24.5649 15.7626 24.5649 15.4697 24.8633C15.1768 25.1616 15.1768 25.6453 15.4697 25.9435L16.7626 27.2604C17.446 27.9565 18.554 27.9565 19.2374 27.2604L20.5303 25.9435C20.8232 25.6453 20.8232 25.1616 20.5303 24.8633C20.2374 24.5649 19.7626 24.5649 19.4697 24.8633L18.75 25.5963V21.3293C18.75 20.9074 18.4142 20.5654 18 20.5654C17.5858 20.5654 17.25 20.9074 17.25 21.3293V25.5963Z" fill="#55F570"/>
</svg>
