<svg width="36" height="52" viewBox="0 0 36 52" fill="none" xmlns="http://www.w3.org/2000/svg">
<rect width="36" height="52" rx="18" fill="#EAF4FF"/>
<path d="M20.5 19.75H15.5L13.625 16.9766C13.3516 16.5859 13.6641 16 14.1328 16H21.8281C22.2969 16 22.6094 16.5859 22.3359 16.9766L20.5 19.75ZM15.5 21H20.5C20.6172 21.1172 20.8125 21.2344 21.0078 21.3516C23.1953 22.7578 28 25.8047 28 32.25C28 34.3203 26.3203 36 24.25 36H11.75C9.67969 36 8 34.3203 8 32.25C8 25.8047 12.7656 22.7578 14.9922 21.3516C15.1484 21.2344 15.3438 21.1172 15.5 21ZM18.7812 24.75C18.7812 24.3203 18.4297 23.9688 18 23.9688C17.5312 23.9688 17.1797 24.3203 17.1797 24.75V24.9844C16.9844 25.0625 16.7891 25.1016 16.5938 25.2188C16.0078 25.4531 15.5 25.9609 15.3438 26.6641C15.3047 27.0547 15.3438 27.4453 15.5 27.7969C15.6562 28.1484 15.9297 28.3828 16.1641 28.5781C16.6328 28.8906 17.2188 29.0469 17.6875 29.2031H17.7656C18.3125 29.3984 18.6641 29.5156 18.8984 29.6719C19.0156 29.75 19.0547 29.7891 19.0547 29.8281C19.0547 29.8672 19.0938 29.9453 19.0547 30.1016C19.0547 30.2188 18.9766 30.3359 18.7422 30.4531C18.5078 30.5312 18.1172 30.6094 17.6094 30.5312C17.375 30.4922 16.9844 30.3359 16.5938 30.2188C16.5156 30.1797 16.4375 30.1406 16.3594 30.1406C15.9297 29.9844 15.5 30.2188 15.3828 30.6094C15.2266 31.0391 15.4609 31.4688 15.8516 31.625C15.9297 31.625 15.9688 31.6641 16.0469 31.6641C16.3594 31.7812 16.8281 31.9375 17.2188 32.0156V32.25C17.2188 32.7188 17.5703 33.0703 18 33.0703C18.4297 33.0703 18.7812 32.7188 18.7812 32.25V32.0547C18.9766 32.0156 19.1719 31.9375 19.3672 31.8594C19.9922 31.625 20.5 31.1172 20.6172 30.375C20.6953 29.9453 20.6562 29.5547 20.5 29.2031C20.3438 28.8516 20.1094 28.6172 19.8359 28.4219C19.3672 28.0703 18.7422 27.875 18.2344 27.7188C17.6484 27.5625 17.2969 27.4453 17.0625 27.2891C16.9453 27.2109 16.9062 27.1719 16.9062 27.1328C16.9062 27.1328 16.8672 27.0938 16.9062 26.9375C16.9062 26.8594 16.9844 26.7422 17.2188 26.625C17.4922 26.5078 17.8828 26.4688 18.3516 26.5469C18.5078 26.5469 19.0547 26.6641 19.2109 26.7031C19.6016 26.8203 20.0312 26.5469 20.1484 26.1562C20.2656 25.7266 20.0312 25.2969 19.6016 25.1797C19.4062 25.1406 19.0156 25.0625 18.7812 25.0234V24.75Z" fill="#4CA1FB"/>
</svg>
