<svg width="36" height="52" viewBox="0 0 36 52" fill="none" xmlns="http://www.w3.org/2000/svg">
<rect width="36" height="52" rx="18" fill="#FEECD8"/>
<path d="M22.8828 17.7578C23.1172 17.2109 22.9219 16.5859 22.4531 16.2734C21.9844 15.9219 21.3594 15.9609 20.8906 16.3125L10.8906 25.0625C10.5 25.4141 10.3828 25.9609 10.5781 26.4688C10.7344 26.9375 11.2031 27.25 11.75 27.25H16.0859L13.0781 34.2812C12.8438 34.8281 13.0391 35.4531 13.5078 35.7656C13.9766 36.1172 14.6016 36.0781 15.0703 35.7266L25.0703 26.9766C25.4609 26.625 25.5781 26.0781 25.4219 25.5703C25.2266 25.1016 24.7578 24.7891 24.25 24.7891H19.875L22.8828 17.7578Z" fill="#F78E2C"/>
</svg>
