<svg width="36" height="52" viewBox="0 0 36 52" fill="none" xmlns="http://www.w3.org/2000/svg">
<rect width="36" height="52" rx="18" fill="#EAF4FF"/>
<path d="M18.9375 16.9375V17.3672C19.1719 17.4062 19.4062 17.4844 19.6406 17.5234C20.1484 17.6797 20.4219 18.1875 20.3047 18.6953C20.1484 19.1641 19.6406 19.4766 19.1328 19.3594C18.7031 19.2422 18.3125 19.1641 17.9609 19.1641C17.6875 19.125 17.375 19.2031 17.2188 19.3203C17.1406 19.3594 17.1016 19.3984 17.0625 19.4375C17.0625 19.4375 17.0625 19.4766 17.0625 19.5547C17.0625 19.5938 17.0625 19.6328 17.1797 19.6719C17.4141 19.7891 17.7266 19.9062 18.2344 20.0625H18.2734C18.7031 20.2188 19.2891 20.375 19.7578 20.6875C20.3047 21 20.7734 21.5859 20.7734 22.4453C20.8125 23.3047 20.3438 23.9297 19.7578 24.3203C19.4844 24.4766 19.2109 24.5938 18.8984 24.6719V25.0625C18.8984 25.6094 18.5078 26 17.9609 26C17.4531 26 17.0234 25.6094 17.0234 25.0625V24.6328C16.6719 24.5547 16.3203 24.4375 16.0469 24.3203C15.9688 24.3203 15.8906 24.2812 15.8125 24.2422C15.3047 24.0859 15.0312 23.5391 15.2266 23.0703C15.3828 22.5625 15.8906 22.2891 16.3984 22.4844C16.5156 22.5234 16.5938 22.5234 16.6719 22.5625C17.2188 22.7578 17.6094 22.875 18 22.875C18.3125 22.9141 18.5859 22.8359 18.7422 22.7188C18.8203 22.6797 18.8594 22.6406 18.8984 22.6016C18.8984 22.6016 18.9375 22.5625 18.8984 22.4453C18.8984 22.4062 18.8984 22.3672 18.7422 22.2891C18.5469 22.1328 18.1953 22.0156 17.6875 21.8594H17.6094C17.2188 21.7031 16.6328 21.5469 16.2031 21.2734C15.6953 20.9609 15.1875 20.4141 15.1484 19.5547C15.1484 18.6562 15.6562 18.0703 16.2422 17.7188C16.5156 17.5625 16.75 17.4453 17.0234 17.4062V16.9375C17.0234 16.4297 17.4531 16 17.9609 16C18.5078 16 18.8984 16.4297 18.8984 16.9375H18.9375ZM28.9375 29.1641C29.4453 29.8672 29.2891 30.8438 28.5859 31.3516L23.6641 34.9844C22.7266 35.6484 21.6328 36 20.5 36H14.25H8C7.29688 36 6.75 35.4531 6.75 34.75V32.25C6.75 31.5859 7.29688 31 8 31H9.40625L11.1641 29.5938C12.0625 28.8906 13.1562 28.5 14.2891 28.5H17.375H18H20.5C21.1641 28.5 21.75 29.0859 21.75 29.75C21.75 30.4531 21.1641 31 20.5 31H18H17.375C17.0234 31 16.75 31.3125 16.75 31.625C16.75 31.9766 17.0234 32.25 17.375 32.25H22.0625L26.75 28.8125C27.4531 28.3047 28.4297 28.4609 28.9375 29.1641ZM14.2891 31H14.25C14.2891 31 14.2891 31 14.2891 31Z" fill="#72B6FF"/>
</svg>
