<svg width="19" height="20" viewBox="0 0 19 20" fill="none" xmlns="http://www.w3.org/2000/svg">
<path d="M12 0V5H17L12 0ZM11.5703 10.3516L8.48438 13.9453L7.3125 12.8125C6.96094 12.4219 6.375 12.4219 6.02344 12.8125C5.63281 13.1641 5.63281 13.75 6.02344 14.1016L7.89844 15.9766C8.05469 16.1719 8.28906 16.2891 8.5625 16.2891C8.5625 16.2891 8.5625 16.2891 8.5625 16.25C8.83594 16.25 9.07031 16.1328 9.26562 15.9375L13.0156 11.5625C13.3281 11.1719 13.2891 10.5859 12.8984 10.2344C12.5078 9.92188 11.9219 9.96094 11.5703 10.3516Z" fill="#07932C"/>
<path opacity="0.4" d="M12 5V0H3.875C2.82031 0 2 0.859375 2 1.875V18.125C2 19.1797 2.82031 20 3.875 20H15.125C16.1406 20 17 19.1797 17 18.125V5H12ZM13.0156 11.5625L9.26562 15.9375C9.07031 16.1328 8.83594 16.25 8.5625 16.25C8.28906 16.25 8.05469 16.1328 7.89844 15.9766L6.02344 14.1016C5.63281 13.7109 5.63281 13.125 6.02344 12.7734C6.375 12.3828 6.96094 12.3828 7.3125 12.7734L8.48438 13.9062L11.5703 10.3125C11.9219 9.92188 12.5078 9.88281 12.8984 10.1953C13.2891 10.5859 13.3281 11.1719 13.0156 11.5625Z" fill="#07932C"/>
</svg>
