<svg width="20" height="34" viewBox="0 0 20 34" fill="none" xmlns="http://www.w3.org/2000/svg">
<path d="M4.5 24C2 24 0 22 0 19.5C0 17.5625 1.25 15.875 3 15.2812C3 15.1875 3 15.0938 3 15C3 12.25 5.21875 10 8 10C9.84375 10 11.4688 11.0312 12.3125 12.5312C12.7812 12.1875 13.375 12 14 12C15.6562 12 17 13.3438 17 15C17 15.4062 16.9062 15.75 16.7812 16.0938C18.625 16.4688 20 18.0938 20 20C20 22.2188 18.1875 24 16 24H4.5ZM6.96875 18.7812L9.46875 21.2812C9.75 21.5938 10.2188 21.5938 10.5 21.2812L13 18.7812C13.3125 18.5 13.3125 18.0312 13 17.75C12.7188 17.4375 12.25 17.4375 11.9688 17.75L10.75 18.9688V14.75C10.75 14.3438 10.4062 14 10 14C9.5625 14 9.25 14.3438 9.25 14.75V18.9688L8.03125 17.75C7.71875 17.4375 7.25 17.4375 6.96875 17.75C6.65625 18.0312 6.65625 18.5 6.96875 18.7812Z" fill="#1F84EF"/>
</svg>
