<svg width="15" height="16" viewBox="0 0 15 16" fill="none" xmlns="http://www.w3.org/2000/svg">
<path d="M11.75 0.6875C12.4375 0 13.5312 0 14.2188 0.6875L14.8125 1.28125C15.5 1.96875 15.5 3.0625 14.8125 3.75L13.875 4.6875L10.8125 1.625L11.75 0.6875ZM13.1562 5.40625L7.9375 10.625C7.75 10.8125 7.5 10.9688 7.25 11.0625L4.46875 11.9688C4.1875 12.0625 3.90625 12 3.71875 11.7812C3.5 11.5938 3.4375 11.2812 3.53125 11.0312L4.4375 8.25C4.53125 8 4.6875 7.75 4.875 7.5625L10.0938 2.34375L13.1562 5.40625Z" fill="#193154"/>
<path opacity="0.4" d="M-0.5 5C-0.5 3.34375 0.8125 2 2.5 2H5.5C6.03125 2 6.5 2.46875 6.5 3C6.5 3.5625 6.03125 4 5.5 4H2.5C1.9375 4 1.5 4.46875 1.5 5V13C1.5 13.5625 1.9375 14 2.5 14H10.5C11.0312 14 11.5 13.5625 11.5 13V10C11.5 9.46875 11.9375 9 12.5 9C13.0312 9 13.5 9.46875 13.5 10V13C13.5 14.6562 12.1562 16 10.5 16H2.5C0.8125 16 -0.5 14.6562 -0.5 13V5Z" fill="#193154"/>
</svg>
