<svg width="16" height="20" viewBox="0 0 16 20" fill="none" xmlns="http://www.w3.org/2000/svg">
<path d="M10.5 13C13.5312 13 16 10.5625 16 7.5C16 4.46875 13.5312 2 10.5 2C7.4375 2 5 4.46875 5 7.5C5 8.09375 5.0625 8.65625 5.25 9.1875L0.21875 14.2188C0.0625 14.375 0 14.5625 0 14.75V17.25C0 17.6875 0.3125 18 0.75 18H3.25C3.65625 18 4 17.6875 4 17.25V16H5.25C5.65625 16 6 15.6875 6 15.25V14H7.25C7.4375 14 7.625 13.9375 7.78125 13.7812L8.8125 12.75C9.34375 12.9375 9.90625 13 10.5 13ZM11.75 7.5C11.0312 7.5 10.5 6.96875 10.5 6.25C10.5 5.5625 11.0312 5 11.75 5C12.4375 5 13 5.5625 13 6.25C13 6.96875 12.4375 7.5 11.75 7.5Z" fill="#193154"/>
</svg>
