<svg width="15" height="20" viewBox="0 0 15 20" fill="none" xmlns="http://www.w3.org/2000/svg">
<path d="M10 5V0H1.875C0.820312 0 0 0.859375 0 1.875V18.125C0 19.1797 0.820312 20 1.875 20H13.125C14.1406 20 15 19.1797 15 18.125V5H10ZM6.5625 8.4375C6.5625 7.92969 6.95312 7.5 7.5 7.5C8.00781 7.5 8.4375 7.92969 8.4375 8.4375V12.8125C8.4375 13.3594 8.00781 13.75 7.5 13.75C6.95312 13.75 6.5625 13.3594 6.5625 12.8125V8.4375ZM7.5 17.5C6.79688 17.5 6.25 16.9531 6.25 16.25C6.25 15.5859 6.79688 15 7.5 15C8.16406 15 8.75 15.5859 8.75 16.25C8.75 16.9531 8.16406 17.5 7.5 17.5Z" fill="#FFB423"/>
<path opacity="0.4" d="M10 5V0H1.875C0.820312 0 0 0.859375 0 1.875V18.125C0 19.1797 0.820312 20 1.875 20H13.125C14.1406 20 15 19.1797 15 18.125V5H10ZM6.5625 8.4375C6.5625 7.92969 6.95312 7.5 7.5 7.5C8.00781 7.5 8.4375 7.92969 8.4375 8.4375V12.8125C8.4375 13.3594 8.00781 13.75 7.5 13.75C6.95312 13.75 6.5625 13.3594 6.5625 12.8125V8.4375ZM7.5 17.5C6.79688 17.5 6.25 16.9531 6.25 16.25C6.25 15.5859 6.79688 15 7.5 15C8.16406 15 8.75 15.5859 8.75 16.25C8.75 16.9531 8.16406 17.5 7.5 17.5Z" fill="#FFB423"/>
</svg>
