<svg width="20" height="20" viewBox="0 0 20 20" fill="none" xmlns="http://www.w3.org/2000/svg">
<path d="M5 0C3.59375 0 2.5 1.13281 2.5 2.5V17.5C2.5 18.9062 3.59375 20 5 20H15C16.3672 20 17.5 18.9062 17.5 17.5V6.25H12.5C11.7969 6.25 11.25 5.70312 11.25 5V0H5ZM12.5 0V5H17.5L12.5 0ZM6.83594 9.33594C7.1875 8.98438 7.77344 8.98438 8.125 9.33594L9.96094 11.1719L11.7969 9.33594C12.1875 8.98438 12.7734 8.98438 13.125 9.33594C13.5156 9.72656 13.5156 10.3125 13.125 10.6641L11.2891 12.5L13.125 14.3359C13.5156 14.7266 13.5156 15.3125 13.125 15.6641C12.7734 16.0547 12.1875 16.0547 11.7969 15.6641L9.96094 13.8281L8.125 15.6641C7.77344 16.0547 7.1875 16.0547 6.83594 15.6641C6.44531 15.3125 6.44531 14.7266 6.83594 14.3359L8.67188 12.5L6.83594 10.6641C6.44531 10.3125 6.44531 9.72656 6.83594 9.33594Z" fill="#FF6768"/>
</svg>
