<svg width="97" height="48" viewBox="0 0 97 48" fill="none" xmlns="http://www.w3.org/2000/svg">
<path fill-rule="evenodd" clip-rule="evenodd" d="M24.7036 2.58747C24.0262 2.78776 24.1853 3.64782 24.792 3.51233C25.0453 3.45931 25.2279 3.22957 25.222 2.97037C25.2162 2.74652 25.0218 2.5639 24.7979 2.57568C24.7626 2.57568 24.7331 2.58158 24.7036 2.58747ZM78.275 30.4158C76.8671 30.4158 76.4017 30.8812 76.4017 32.2891C76.4017 30.8812 75.9363 30.4158 74.5284 30.4158C75.9363 30.4158 76.4017 29.9504 76.4017 28.5425C76.4017 29.9563 76.8671 30.4158 78.275 30.4158ZM79.0879 27.5764C78.328 27.5764 78.0806 27.8297 78.0806 28.5838C78.0806 27.8239 77.8273 27.5764 77.0733 27.5764C77.8214 27.5764 78.0806 27.3231 78.0806 26.5691C78.0747 27.329 78.3339 27.5764 79.0879 27.5764ZM71.8834 25.0021C71.0234 25.0021 70.7406 25.2849 70.7406 26.145C70.7406 25.2849 70.4578 25.0021 69.5978 25.0021C70.4578 25.0021 70.7406 24.7076 70.7406 23.8593C70.7347 24.7017 71.0234 25.0021 71.8834 25.0021ZM72.8554 23.1524C72.2958 23.1524 72.1073 23.335 72.1073 23.8947C72.1073 23.335 71.9247 23.1524 71.365 23.1524C71.9247 23.1524 72.1073 22.9698 72.1073 22.4043C72.1073 22.9698 72.2958 23.1465 72.8554 23.1524ZM82.9523 22.9757C82.1924 24.0125 81.6387 25.2024 81.1851 26.4807C80.6078 28.0065 79.6299 31.4173 80.7256 32.943C81.5385 34.1212 82.9995 34.669 84.3838 34.3156C85.3911 34.074 85.0554 33.4614 85.1791 32.4599C85.3911 30.9637 85.7858 29.7148 86.3042 28.3128C86.7755 27.0698 87.3233 25.8563 87.9537 24.684C88.2364 24.1067 88.5545 23.5471 88.8962 23.0051C89.1083 22.6988 89.8093 21.609 90.2099 21.7268C90.363 22.0921 89.9035 23.123 89.8152 23.4646C88.4721 27.1464 87.0111 32.5483 87.559 36.4481C87.7416 37.8442 88.0126 38.7337 88.6841 39.741C89.232 40.5009 90.1804 41.3551 91.335 41.5083C92.7076 41.6614 93.6796 41.2668 94.7517 40.5657C95.6412 39.959 96.4011 39.2874 96.9136 38.3685L96.9431 38.3096V38.0857C96.7899 37.9914 96.6073 37.9915 96.3952 37.9561C95.1169 37.6792 94.2922 37.1608 93.497 36.1299C91.7002 33.75 91.9418 29.8798 92.2775 27.0463C92.4602 25.4616 92.7959 24.0007 93.1671 22.5044C93.4439 21.4382 94.357 18.8757 93.6265 18.1157C93.3261 17.9154 92.9786 17.8035 92.6192 17.7858C92.2069 17.7505 91.7945 17.8035 91.3998 17.939C90.7636 18.1629 90.1686 18.481 89.6326 18.8815C88.8726 19.4294 88.2011 20.1304 87.559 20.8314C87.3469 21.0729 87.1643 21.3204 86.9228 21.5619C86.5281 22.0508 86.1275 22.5987 85.7623 23.1171C85.5502 23.4234 85.397 23.6355 85.2144 23.9123C85.1202 24.0949 84.7903 24.6428 84.6666 24.737C84.6666 24.3718 84.7255 23.8829 84.696 23.4587C84.6371 23.0935 84.6018 22.6988 84.4545 22.3925C84.0304 21.6326 83.2056 22.6694 82.9523 22.9757ZM73.957 25.7915L73.6743 25.4322L73.1735 26.0802L74.1573 27.1994L75.0881 26.3983L75.035 26.3924C74.6109 26.3511 74.2221 26.1332 73.957 25.7915ZM73.7567 23.2938L72.2487 24.8725C72.1426 24.9845 72.1485 25.1612 72.2605 25.2672C72.3253 25.3261 72.4077 25.3556 72.4902 25.3438L73.7626 25.1435L74.3281 25.7679L74.4695 25.9152C74.6698 26.145 74.982 26.2392 75.2766 26.1685L75.5122 26.1155L74.6934 27.4468C74.6168 27.5823 74.6639 27.7532 74.7994 27.8297C74.8878 27.8769 74.9879 27.8769 75.0763 27.8297L76.4312 26.9873C76.7493 26.793 76.9731 26.4748 77.0556 26.1096L77.2382 25.3026L76.2544 25.6855C79.247 23.877 82.0039 21.986 82.1453 19.3764C81.7742 19.394 81.3972 19.4294 81.026 19.4883C80.4782 19.5826 79.9421 19.7298 79.4237 19.936C79.5533 20.3484 79.7536 20.7313 80.0128 21.0671C80.1719 21.2791 80.3604 21.4676 80.5724 21.6267C80.3427 21.4971 80.1247 21.3498 79.9244 21.1849C79.5533 20.8903 79.2411 20.5251 78.9996 20.1186L78.7993 20.2188L78.6991 20.2718C77.2382 21.0494 75.8657 22.3395 74.6168 24.2599L75.1823 23.1524L73.7567 23.2938ZM76.9437 23.9771C76.6904 23.877 76.4606 23.7238 76.3958 23.5294C76.7669 23.6001 77.1498 23.6001 77.521 23.5353C77.5799 23.5294 77.6388 23.5118 77.6977 23.5C78.6049 23.2938 79.3059 22.7401 79.6004 22.0685C79.6594 22.1569 79.6829 22.2629 79.6829 22.3689C79.6711 23.0523 78.2514 24.0007 77.5681 24.0773C77.3501 24.0891 77.144 24.0537 76.9437 23.9771ZM77.6329 23.3586C77.2088 23.4587 76.7669 23.4705 76.3428 23.3939C76.3251 23.3527 76.3192 23.3115 76.3192 23.2643C76.3075 22.4043 77.9922 21.0199 78.7757 21.1967C78.976 21.2379 79.2588 21.4971 79.4355 21.774C79.4708 21.8329 79.5003 21.88 79.5356 21.933C79.2588 22.5574 78.6108 23.0935 77.7802 23.3291C77.7272 23.3468 77.68 23.3586 77.6329 23.3586ZM71.0528 31.488C71.0352 31.5115 71.0116 31.541 70.988 31.5645L70.9821 31.5704V31.5822C70.9645 31.6176 70.9409 31.6529 70.9173 31.6824C70.7936 31.8296 70.6346 31.9357 70.452 31.9887C70.4402 31.9887 70.4402 31.9887 70.4402 32.0005H70.4166L70.2693 32.024C70.0219 32.0417 69.7863 31.9415 69.6214 31.7589C69.8099 31.8709 70.0337 31.9062 70.2458 31.865C70.452 31.8355 70.6346 31.7236 70.7642 31.5586C70.8231 31.488 70.8643 31.4114 70.8938 31.3289C70.935 31.2229 70.9527 31.1109 70.9468 30.9931C70.935 30.7752 70.8525 30.569 70.7053 30.404C70.8761 30.4983 71.0057 30.6573 71.0646 30.8459C71.2354 31.0167 71.4475 31.1404 71.6831 31.2052C71.9836 31.2877 72.3017 31.2523 72.5727 31.1051C72.8495 30.9637 73.0616 30.7221 73.1618 30.4335C73.2737 30.1272 73.2678 29.7973 73.1559 29.491C73.3444 29.7796 73.4033 30.139 73.3149 30.4747C73.2207 30.8223 72.985 31.1168 72.6669 31.2818C72.3488 31.4526 71.9777 31.4762 71.6419 31.3584C71.4298 31.2818 71.2472 31.1522 71.1059 30.9755C71.1294 31.1463 71.1117 31.3171 71.0469 31.4762C71.0469 31.4821 71.0528 31.4938 71.0646 31.4938L71.0528 31.488ZM66.5404 33.8207C66.3166 33.8914 66.0751 33.8855 65.8571 33.8031C65.6391 33.7147 65.4565 33.5615 65.3328 33.3612C65.2032 33.1374 65.1443 32.8723 65.1738 32.6131C64.9911 32.8664 64.944 33.2022 65.0559 33.4967C65.268 34.0858 65.916 34.3921 66.4992 34.1801C66.5522 34.1624 66.6111 34.1329 66.6583 34.1094C66.9351 33.9621 67.1177 33.6852 67.159 33.3789C67.0117 33.5851 66.7937 33.7441 66.5404 33.8207ZM63.2946 26.7988C63.2533 27.3408 62.6584 27.6471 62.0045 28.7134C61.9986 28.731 62.0045 28.7487 62.0163 28.7546C62.0222 28.7605 62.0339 28.7605 62.0398 28.7546C62.3049 28.6191 62.9824 28.3128 62.6407 28.7546C62.3756 29.1081 62.1753 29.5027 62.0339 29.921C62.0281 29.9563 62.0693 29.9799 62.0811 29.9446C62.2166 29.7737 62.4168 29.6677 62.6289 29.6441H62.7291C62.7291 29.6441 62.6643 29.6618 62.5523 29.8974V29.9092C61.7571 30.9813 61.5862 31.812 61.5273 32.3951C61.5273 32.4128 61.545 32.4246 61.5627 32.4246C61.5745 32.4246 61.5803 32.4187 61.5862 32.4128C61.8101 32.0122 62.4345 31.6293 62.676 31.6647C62.7114 31.6647 62.7467 31.6882 62.7585 31.7236C62.894 32.1301 62.6289 32.6897 62.3933 33.102C62.3285 33.2022 62.2637 33.2847 62.2166 33.3671C62.2107 33.3848 62.193 33.3907 62.1812 33.4084L62.0516 33.5851C62.0928 33.538 62.1341 33.4967 62.1812 33.4555V33.4496C62.246 33.3848 62.3285 33.3023 62.4227 33.2258C62.5464 33.1079 62.7408 33.1138 62.8528 33.2375C62.9058 33.2964 62.9352 33.373 62.9352 33.4555C62.9529 34.887 61.2092 35.8531 60.0841 36.6778C60.0723 36.6896 60.0664 36.7072 60.0782 36.7249C60.0841 36.7367 60.0958 36.7367 60.1076 36.7367C61.0089 36.4068 62.1046 35.5703 63.0589 35.6881C63.0766 35.694 63.1002 35.6999 63.1179 35.6999C63.4183 35.7588 63.6127 36.0475 63.5597 36.3479C63.5479 36.4186 63.5184 36.4893 63.4772 36.5482C63.4595 36.5894 63.4301 36.6189 63.3947 36.6483L62.6525 37.3376C62.6171 37.3611 62.6525 37.4024 62.676 37.3906C63.165 37.1667 63.7011 37.0607 64.243 37.0843C64.732 37.1078 65.215 37.2198 65.6627 37.4259C65.8571 37.5025 66.0574 37.5673 66.2636 37.6203C66.2989 37.6321 66.3401 37.638 66.3814 37.6439C66.0633 37.7087 65.757 37.8383 65.4919 38.0268C65.4447 38.068 65.3917 38.1034 65.3446 38.1328C65.1855 38.233 64.8203 38.61 63.8307 38.7514C64.0251 38.7985 64.2312 38.8221 64.4315 38.8162C65.0324 38.8044 65.6274 38.6984 66.1929 38.4981L66.5758 38.3685C67.9896 37.8677 69.315 37.1373 70.9232 37.3965C70.9586 37.3965 70.9586 37.4436 70.9232 37.4554C70.1751 37.6969 69.2561 37.7499 68.5846 38.2506H68.5787C68.3843 38.392 68.2193 38.5629 68.0897 38.769C68.0662 38.8103 68.0367 38.8515 68.0132 38.8986C69.427 38.1564 70.8349 37.8147 72.1957 37.4259C72.449 37.3317 72.7023 37.2433 72.9438 37.1491C74.6286 36.4893 76.2014 35.6351 77.2736 34.2272C77.574 33.8266 77.8332 33.3966 78.0335 32.943C78.0394 32.9312 78.0335 32.9135 78.0217 32.9076C78.0099 32.9018 77.9981 32.9018 77.9922 32.9135C75.4238 34.0976 72.9143 33.3141 71.0528 31.5174C71.0941 31.4703 71.1294 31.4232 71.1648 31.3701C71.3297 31.4821 71.5123 31.5528 71.7067 31.5881C72.5903 31.7707 73.4563 31.1993 73.6389 30.3157C73.6448 30.2627 73.6566 30.2214 73.6625 30.1861C73.7449 29.4497 73.3326 28.7487 72.6492 28.4601L74.0159 27.3408L73.038 26.2333L71.7951 27.6C71.5359 26.9461 70.7936 26.6339 70.1456 26.8931C69.8393 27.0168 69.586 27.2583 69.4564 27.5588C69.4152 27.6412 69.3857 27.7355 69.3622 27.8239C69.3032 28.1184 69.3504 28.4188 69.4976 28.6839C69.4152 28.6898 69.3386 28.7016 69.2561 28.7193C68.4903 26.198 69.4034 23.4646 71.53 21.9036C71.9423 21.609 72.3842 21.3616 72.8554 21.179C72.8731 21.1731 72.879 21.1554 72.8731 21.1377C72.8672 21.1319 72.8613 21.126 72.8554 21.1201C71.2237 20.3778 66.2223 22.1863 64.6377 24.0949C64.62 24.1126 64.6436 24.1539 64.6789 24.1362C64.8439 24.0537 65.162 23.8947 65.4389 23.7886C65.4742 23.7709 65.4978 23.824 65.4742 23.8357C64.5317 24.5368 64.1193 25.1494 63.2062 26.4042C62.9706 26.681 62.7644 26.9756 62.5877 27.2937L63.2357 26.8047C63.2592 26.7871 63.2946 26.8047 63.2828 26.8283L63.2946 26.7988ZM69.5271 28.0477C69.6272 27.5529 70.1103 27.2289 70.6051 27.329C70.6405 27.3349 70.6699 27.3467 70.7053 27.3526C70.9409 27.4233 71.1353 27.6059 71.2237 27.8356C71.0823 27.6589 70.8879 27.5411 70.664 27.5057C70.4579 27.4645 70.2458 27.4999 70.0632 27.6059C69.8805 27.7119 69.7451 27.8828 69.6685 28.0831C69.6037 28.301 69.6096 28.5308 69.692 28.7428C69.5271 28.5484 69.4682 28.2951 69.5271 28.0477ZM72.0248 28.5543C72.1426 28.5425 72.2663 28.572 72.3665 28.6368C72.4136 28.6662 72.4549 28.7075 72.4961 28.7487C72.6198 28.8783 72.6728 29.055 72.6551 29.2318C72.6434 29.3967 72.5491 29.5499 72.4018 29.6323C72.5609 29.4026 72.5373 29.0904 72.3488 28.8842C72.3076 28.843 72.2605 28.8017 72.2074 28.7782C72.013 28.678 71.7833 28.6839 71.6007 28.7958C71.689 28.6427 71.8481 28.5543 72.0248 28.5543ZM62.894 26.9579C62.9411 26.9579 62.8763 26.9225 62.894 26.9579ZM64.2666 28.4836C65.2091 27.5057 67.0412 27.7532 67.0412 29.4615C66.2812 28.1184 64.4786 29.0668 64.6966 30.4394C64.7555 30.8341 65.0913 31.0167 65.4565 31.1698C65.1031 31.2229 64.7378 31.1581 64.4197 30.9872C63.2651 30.351 63.9013 28.9137 64.2666 28.4836ZM68.4844 29.3496C68.6729 29.1493 68.9144 29.0197 69.1736 28.9667C69.2267 28.949 69.2797 28.9431 69.3327 28.9431C69.6272 28.9195 69.9159 29.0079 70.1515 29.1846C69.91 29.0786 69.6508 29.0433 69.3916 29.0786L69.3386 29.0904C69.2974 29.1022 69.2561 29.1081 69.209 29.1198C69.1736 29.1257 69.1383 29.1375 69.1088 29.1493H69.103L69.0028 29.2023C68.8673 29.273 68.7436 29.3614 68.6376 29.4792C68.5905 29.5381 68.5492 29.597 68.508 29.6618C68.3489 29.9269 68.29 30.245 68.3489 30.5513C68.3902 30.7752 68.4903 30.9813 68.6376 31.1522C68.6199 31.0874 68.6199 31.0167 68.6317 30.9519C68.6435 30.7811 68.7377 30.6338 68.885 30.5513C68.6965 30.8164 68.7554 31.1816 69.0205 31.3701C69.2149 31.5115 69.4741 31.5174 69.6803 31.3878C69.5919 31.5292 69.4328 31.6176 69.262 31.6234C69.209 31.6234 69.1619 31.6234 69.1147 31.6176C69.0735 31.6117 69.0323 31.5999 68.9969 31.5763C68.9203 31.5469 68.8438 31.4938 68.7907 31.4349C68.7436 31.3819 68.7024 31.3171 68.6729 31.2523C68.4432 31.0933 68.2724 30.8635 68.1958 30.5926C68.1428 30.4217 68.131 30.2391 68.1545 30.0565C68.1545 30.027 68.1663 29.9917 68.1722 29.9622C68.2017 29.8208 68.2547 29.6854 68.3313 29.5617C68.3725 29.4851 68.4255 29.4144 68.4844 29.3496ZM65.3505 32.1124C65.9219 31.7059 66.7172 31.8414 67.1236 32.4128C67.5301 32.9842 67.3946 33.7795 66.8232 34.186C66.2518 34.5865 65.4683 34.4569 65.0559 33.8914C64.6436 33.32 64.7732 32.5306 65.3505 32.1124ZM67.1649 37.5437C67.3828 37.4848 68.1781 37.2904 68.5374 37.1962C68.5728 37.1844 68.5846 37.2374 68.561 37.2551C68.2075 37.4907 67.3357 38.0445 67.0765 37.8972C66.8527 37.8383 66.4403 38.0268 66.2341 38.2153C66.4815 37.909 66.7996 37.6733 67.1649 37.5437ZM72.5727 34.0858C72.7317 34.0446 72.9084 34.0564 73.0616 34.1153C73.6271 34.3509 73.4092 35.046 73.2619 35.2581C72.879 35.7588 72.0189 35.7411 71.9306 34.9518C72.3547 35.535 73.1323 35.0048 72.9674 34.3804C72.9084 34.2036 72.7494 34.1388 72.5727 34.0858ZM72.8319 33.3671C72.9026 33.3023 72.932 33.2081 72.9143 33.1138C72.9674 33.1904 72.9968 33.2788 72.9909 33.3671C72.9791 33.7088 72.5727 33.7206 72.4372 33.6852C72.1073 33.5792 71.9541 33.1315 72.3429 32.9371C72.1191 33.2552 72.5491 33.5674 72.8319 33.3671ZM68.5374 24.6016C68.2311 25.061 67.6479 24.7488 67.4889 24.578C67.1177 24.148 67.2827 23.3939 67.9955 23.4528C67.4064 23.7238 67.7422 24.5073 68.3195 24.4661C68.4844 24.4543 68.5728 24.3188 68.6494 24.1715C68.667 24.3306 68.6258 24.4778 68.5374 24.6016ZM67.695 22.4573C67.3121 22.7459 67.0353 23.388 65.7452 23.5176C65.7098 23.5176 65.6922 23.4823 65.7216 23.4646C65.9749 23.2408 66.8527 22.4985 67.6715 22.3984C67.7009 22.4043 67.7186 22.4396 67.695 22.4573ZM65.1502 26.1862C65.0913 26.1096 65.1325 25.9918 65.2327 25.9211C65.2857 25.8386 65.3917 25.8151 65.4683 25.8681C65.5449 25.9211 65.5743 26.0271 65.5213 26.1037C65.4978 26.1391 65.4683 26.1626 65.433 26.1744C65.3269 26.2569 65.2032 26.2569 65.1502 26.1862ZM68.1545 30.0506C68.1545 30.0447 68.1545 30.0388 68.1545 30.0329C68.1486 30.0388 68.1486 30.0447 68.1545 30.0506ZM69.7451 34.0505C69.5919 33.9327 69.5624 33.7147 69.6744 33.5615C69.7627 33.3848 69.9748 33.32 70.1515 33.4084C70.1574 33.4084 70.1574 33.4143 70.1633 33.4143C70.3106 33.538 70.34 33.7559 70.2222 33.915C70.0985 34.0858 69.8805 34.1447 69.7451 34.0505ZM67.6361 26.8754C67.4182 27.0522 67.1295 27.0522 66.9764 26.8754C66.8291 26.6987 66.8821 26.41 67.0942 26.2333C67.3062 26.0566 67.6008 26.0507 67.7422 26.2333C67.8836 26.4159 67.8482 26.7046 67.6361 26.8754ZM48.1433 23.0287C47.5425 23.9123 47.0594 24.8784 46.7118 25.8917C46.1935 27.6 46.0756 28.9372 46.0756 30.6161L46.2288 32.077C46.2877 32.5424 46.3761 32.996 46.5057 33.4496C47.083 35.7058 48.4555 38.5393 51.2596 38.5393L52.0784 38.4804C52.9915 38.3272 53.7868 37.9325 54.6056 37.5025C56.096 36.6896 57.3802 35.5409 58.3522 34.1506C59.8131 32.2008 61.1268 29.0904 61.3388 26.5279C61.3977 25.6383 61.4684 25.0669 61.3094 24.148C61.1268 22.8343 60.4552 21.5854 59.1769 21.1613C58.4759 20.9198 57.4391 21.0317 56.797 21.4028C55.7013 22.039 55.2123 23.9005 55.0886 25.1847C54.9944 26.2215 55.3655 27.4704 55.7248 28.2009C55.9369 28.5838 56.1902 28.9431 56.4848 29.2671C56.7616 29.6029 57.2447 29.8444 57.6099 29.9681C57.3566 30.5042 57.0385 31.0108 56.6674 31.4703C55.7248 32.7781 53.9517 34.4275 52.0961 34.3627L51.7603 34.3332C51.9959 33.5262 52.3788 32.7722 52.8855 32.1065C53.0681 31.8944 53.2507 31.7118 53.4039 31.4997C53.8928 30.893 54.747 30.0683 55.2948 29.4851C55.3537 29.3908 55.5069 29.273 55.5363 29.1493C55.3243 29.2082 54.529 29.8798 54.3464 30.0388C53.7985 30.5277 52.6675 31.4997 52.0018 31.8355C51.4834 32.1124 50.7824 32.0476 50.5114 31.6234C50.8472 31.0167 51.5188 30.0388 51.9429 29.4262C52.0018 29.3319 52.1255 29.2141 52.1255 29.0904C51.9959 29.1493 51.7603 29.5145 51.6366 29.6088C51.4717 29.7914 51.2714 29.9446 51.0593 30.0683C50.4231 30.4335 50.1698 30.3746 49.3804 30.4629C49.2272 29.9151 49.4393 28.0241 49.563 27.4763C49.6573 26.9579 49.7751 26.5338 49.8988 26.0802C50.5704 23.9771 51.8487 22.2982 53.9222 21.4794C54.2462 21.3439 54.582 21.2556 54.9296 21.2025C55.2948 21.1083 56.149 21.2968 56.149 20.9257C56.1195 20.6841 54.9001 19.4353 53.8044 19.4353C53.1329 19.4353 52.9797 19.4058 52.2787 19.6179C51.507 19.8476 50.7942 20.2306 50.1757 20.7431C49.3215 21.503 48.8031 21.9919 48.1315 23.0287H48.1433ZM57.4685 28.4306C57.1622 27.5175 57.0738 24.8018 57.7101 24.4955C58.0458 24.3129 58.3168 24.9845 58.4111 25.2908C58.6879 26.0507 58.6879 27.2701 58.5937 28.0654C58.5819 28.2833 58.5407 28.4954 58.4641 28.7016C58.4052 28.8842 58.3109 29.1257 58.1872 29.1905C57.822 29.3731 57.551 28.731 57.4568 28.4306H57.4685ZM28.2087 15.023C26.8656 15.1173 22.2413 22.3689 21.4755 23.8299C20.2148 26.1685 15.0427 36.5305 17.293 40.2182C17.8526 41.0488 18.6832 41.6615 19.6375 41.956C20.1559 42.1092 21.499 42.1975 21.9232 41.7734C22.2295 41.4376 22.0763 40.8603 22.0763 40.3772V39.364C22.0881 37.261 22.2472 35.1638 22.5653 33.0844C22.6595 32.4482 23.2015 29.0315 23.4784 28.6073C23.4607 28.8724 23.4312 29.1375 23.3841 29.4026C23.2545 31.4173 23.0483 33.214 23.2545 35.2522C23.3488 35.7706 23.3841 36.289 23.4666 36.8074C23.5608 37.2963 23.6492 37.7853 23.7729 38.2389C24.0144 39.093 24.3502 40.0356 24.8391 40.6541C26.7596 42.9987 29.381 42.5451 31.3014 40.6541C31.7491 40.2123 32.1026 39.6821 32.3382 39.0989C33.2807 36.9016 33.8639 34.8929 34.7181 32.7604C35.3602 31.1227 36.0907 29.5263 36.9154 27.977C37.9227 25.9623 40.2967 22.3395 41.6987 20.5369L42.4587 19.5943C42.4115 19.6827 41.9049 20.8668 41.7282 21.2673C41.2393 22.4278 40.8387 23.6472 40.4145 24.8313C39.8137 26.7458 39.3483 28.7016 39.0184 30.6868C38.8652 31.6941 38.6826 32.943 38.6532 33.9798C38.6532 34.1624 38.6237 34.3156 38.6237 34.5571C38.6237 34.7692 38.5943 34.8634 38.5943 35.1049C38.5943 38.0621 38.7769 40.8956 39.8726 43.5171C40.5441 45.0723 41.7635 46.6569 43.2245 47.4463C43.5308 47.5994 43.7723 47.6878 44.0786 47.8115C44.2377 47.8527 44.4026 47.8822 44.5676 47.9057L45.086 48H45.9755L46.0697 47.9705H46.164C46.2111 47.947 46.2641 47.9352 46.3172 47.9411L47.2597 47.729C48.3024 47.3402 49.239 46.7158 50.0048 45.9029C50.9415 44.9485 52.0666 43.523 52.2198 42.0267C52.2492 41.6909 52.314 41.6614 52.0666 41.4494C51.4599 40.8721 50.753 42.9751 48.0726 41.7557C46.7295 41.1489 45.7281 39.8647 45.2097 38.5216C44.0197 35.2876 43.896 31.6352 44.385 27.6707C44.7502 24.7488 45.7281 20.69 46.7649 17.8565C47.189 16.696 47.8606 15.2057 47.8606 13.9568C47.8606 13.7447 48.0137 13.4973 47.6485 13.1615C46.8238 12.4016 45.0565 13.3147 44.2671 13.7977C42.1641 15.0466 40.6678 16.6018 38.93 18.369C38.4411 18.8874 37.6223 19.8653 37.1628 20.4073C36.2497 21.5678 35.3955 22.7224 34.5414 23.9123C32.4678 26.9108 30.459 30.4629 29.2396 33.8502C29.0864 34.3391 28.6034 35.7706 28.6034 36.2654C26.8361 35.6881 26.8067 28.949 26.9893 27.3349C27.4488 23.1288 28.4502 20.3484 29.705 16.5134C29.7992 16.1776 29.9818 15.7182 29.7992 15.4177C29.4635 14.8934 28.7624 14.9877 28.2087 15.023ZM23.0012 13.4973C19.6493 14.0157 14.377 17.0024 11.6024 18.9817C10.2946 19.8712 6.60697 22.9403 6.60697 24.6781C6.60697 25.3791 6.57751 25.5323 6.94275 26.2628C7.09002 26.5809 7.27263 26.8813 7.49059 27.1523C7.82048 27.5352 8.49204 28.2068 9.04578 28.4247C9.53472 28.5779 9.71733 28.3658 9.93529 28.03C10.6422 26.8695 11.4198 25.7562 12.274 24.7017C12.6392 24.2422 16.6332 19.8535 17.2105 19.6709C17.181 19.7652 15.9911 21.4087 15.8968 21.5324C15.4727 22.1392 15.0073 22.7813 14.6185 23.4234C12.7276 26.3217 10.2298 31.0108 9.37566 34.4569C9.19305 35.158 8.98098 36.1653 8.95152 36.8368C8.92207 37.691 8.98098 38.4215 9.34621 39.1519C9.87049 40.2417 10.8543 41.0311 12.0265 41.3139C12.5744 41.4435 13.8233 41.6202 14.159 41.0724C14.2886 40.8308 14.2533 40.8308 14.2886 40.4951L14.3829 39.2462C14.4123 38.392 14.807 35.9827 14.9896 35.099C15.5257 32.6072 16.2562 30.1684 17.1751 27.7885C18.8246 23.6414 20.5918 20.5604 23.0954 17.0024C23.3075 16.6666 24.7095 14.8404 25.0453 14.5046C25.1396 14.4104 25.44 14.4104 25.2574 13.9568C25.0453 13.4973 24.2795 13.4384 23.8259 13.4384C23.6963 13.4384 23.5844 13.4679 23.4312 13.4679C23.2957 13.462 23.1485 13.4914 23.0012 13.4973ZM13.0339 13.1026C12.4684 13.35 11.9264 13.5857 11.3844 13.8095C12.4978 14.4398 13.7585 14.7756 15.0427 14.7756C15.2429 14.7756 15.455 14.7638 15.6435 14.7521C18.371 14.5341 20.7568 12.8199 21.8289 10.2986C21.9703 9.9687 22.0881 9.62703 22.1824 9.28536C22.2531 9.00849 22.312 8.73162 22.3473 8.44886C22.3591 8.40173 22.3591 8.34282 22.3709 8.2957C20.692 9.28536 18.8128 10.3045 16.8335 11.3059C15.7731 11.8361 14.7304 12.3427 13.7054 12.7963C13.4816 12.9023 13.2577 12.9966 13.0339 13.1026ZM16.8335 13.7801C16.3033 13.8213 15.8261 13.2735 16.2738 12.7668C16.1442 13.3618 16.9218 13.5503 17.2164 13.0967C17.2989 12.9671 17.2517 12.8199 17.181 12.6844C17.2989 12.761 17.3872 12.8729 17.4343 13.0084C17.6052 13.4914 17.0455 13.7447 16.8217 13.7742L16.8335 13.7801ZM18.6184 12.2661C18.6184 12.1837 18.6773 12.113 18.7598 12.113C18.7657 12.113 18.7657 12.113 18.7716 12.113C18.854 12.113 18.9247 12.1778 18.9247 12.2661C18.9247 12.3486 18.8599 12.4193 18.7716 12.4193C18.6891 12.4193 18.6184 12.3545 18.6184 12.2661ZM6.63053 13.4973C5.54661 13.6092 5.27564 15.0584 5.81759 15.4177C6.05912 15.5945 6.35366 15.671 6.65409 15.6416C7.69677 15.5297 8.00899 14.1512 7.44347 13.7388C7.20194 13.568 6.91918 13.4855 6.63053 13.4973ZM7.2314 9.4503C2.50105 12.3663 -0.450268 14.9406 0.0563452 15.9361C0.0681269 15.9715 0.0857994 16.0068 0.115254 16.0304C0.610085 16.643 2.64243 16.3956 5.5584 15.5002C5.28742 15.2528 5.12247 14.9052 5.1048 14.5341C3.85594 14.7108 3.0489 14.6048 2.81915 14.1512C2.43625 13.3677 3.99143 11.7242 6.73067 9.79197C6.89562 9.68005 7.06056 9.56223 7.2314 9.4503ZM6.44791 7.60647C6.47148 7.04095 5.92952 6.90546 5.68799 6.97026C5.25796 7.08218 5.05178 7.3296 5.01055 7.75963C4.95753 7.96581 5.04589 8.17788 5.2344 8.27802C5.39934 8.38995 5.60552 8.43119 5.79992 8.38995C6.16515 8.31337 6.43613 7.98937 6.44791 7.60647ZM21.5874 2.35772C24.8097 1.29737 27.113 1.02639 27.5136 1.81577C27.9731 2.70529 25.8818 4.73763 22.4121 6.98793V6.96437V6.94669C22.1765 2.88201 18.6891 -0.228358 14.6244 0.0131669C10.5597 0.254692 7.44936 3.73618 7.68499 7.80087C7.80281 9.83321 8.75123 11.7242 10.3123 13.026L10.33 13.0437H10.3418C10.3418 13.0437 10.3418 13.0496 10.3418 13.0555C9.46992 13.3854 8.65109 13.6564 7.88528 13.892C7.96775 14.0687 8.00899 14.2631 8.0031 14.4575C8.0031 14.5341 7.99132 14.6048 7.97953 14.6814C8.91029 14.3279 9.90584 13.9391 10.9426 13.5091C12.7393 12.7551 14.6598 11.8773 16.6332 10.8877C18.7127 9.85088 20.6625 8.78464 22.418 7.74785C27.5784 4.67872 30.9421 1.89235 30.6357 0.761305C30.6239 0.714178 30.6122 0.690616 30.6004 0.65527C30.0938 -0.357955 26.2588 0.466764 21.0749 2.52267C21.2398 2.46376 21.4048 2.41663 21.5697 2.35772C21.5815 2.34594 21.5815 2.34594 21.5933 2.34594L21.5874 2.35772ZM15.349 6.14554C15.184 6.14554 15.0427 6.01005 15.0427 5.8451V5.83921C15.0544 5.66838 15.2017 5.54467 15.3667 5.55056C15.5198 5.56234 15.6435 5.68016 15.6553 5.83921C15.6553 6.00416 15.5198 6.14554 15.349 6.14554ZM20.0617 5.73907C19.9792 5.45631 19.7141 5.35616 19.4254 5.28547C19.6788 5.20889 19.9497 5.22067 20.1971 5.31493C21.1043 5.66249 20.7862 6.77586 20.5624 7.12342C19.9733 7.93046 18.6125 7.93636 18.4417 6.69339C19.1368 7.58291 20.3503 6.71695 20.0617 5.73907ZM13.4757 10.2573C13.4816 10.0924 13.6171 9.95691 13.782 9.95102C13.947 9.95102 14.0883 10.0865 14.0883 10.2515V10.2573C14.0883 10.4223 13.9529 10.5578 13.782 10.5637C13.6171 10.5637 13.4816 10.4282 13.4757 10.2573ZM10.4949 5.83921C10.4949 5.92169 10.4242 5.99238 10.3418 5.99238C10.2593 5.99238 10.1886 5.92169 10.1886 5.83921C10.1886 5.75674 10.2593 5.68605 10.3418 5.68605C10.4242 5.68605 10.489 5.74496 10.4949 5.82743C10.4949 5.83332 10.4949 5.83332 10.4949 5.83921ZM9.71733 7.77141C10.2416 7.22945 11.2666 7.36494 11.2666 8.31926C10.8425 7.57112 9.83515 8.09541 9.95297 8.86122C9.98831 9.08507 10.1768 9.18522 10.3771 9.26769C10.1768 9.29714 9.97653 9.2618 9.79981 9.16754C9.1577 8.8082 9.51115 8.00705 9.71733 7.77141ZM12.2799 3.64193C11.9559 3.64193 11.6908 3.37684 11.6908 3.05285C11.6908 2.72885 11.9559 2.46376 12.2799 2.46376C12.6038 2.46376 12.8689 2.72885 12.8689 3.05285C12.8689 3.37684 12.6156 3.63604 12.2916 3.64193C12.2857 3.64193 12.2799 3.64193 12.2799 3.64193ZM16.0147 2.8879C15.9204 2.70528 15.8851 2.4991 15.9145 2.29881C16.0441 1.56246 16.9218 1.63315 17.2223 1.74508C17.9233 2.06907 18.1354 3.08819 17.2223 3.41219C17.7937 2.75241 16.9513 1.96893 16.2621 2.34005C16.0618 2.44609 16.0264 2.65816 16.0088 2.88201H16.0147V2.8879Z" fill="#fff"/>
<path fill-rule="evenodd" clip-rule="evenodd" d="M24.7036 2.58747C24.0262 2.78776 24.1853 3.64782 24.792 3.51233C25.0453 3.45931 25.2279 3.22957 25.222 2.97037C25.2162 2.74652 25.0218 2.5639 24.7979 2.57568C24.7626 2.57568 24.7331 2.58158 24.7036 2.58747ZM13.0339 13.1026C12.4684 13.35 11.9264 13.5857 11.3844 13.8095C12.4978 14.4398 13.7585 14.7756 15.0427 14.7756C15.2429 14.7756 15.455 14.7638 15.6435 14.7521C18.371 14.5341 20.7568 12.8199 21.8289 10.2986C21.9703 9.9687 22.0881 9.62703 22.1824 9.28536C22.2531 9.00849 22.312 8.73162 22.3473 8.44886C22.3591 8.40173 22.3591 8.34282 22.3709 8.2957C20.692 9.28536 18.8128 10.3045 16.8335 11.3059C15.7731 11.8361 14.7304 12.3427 13.7054 12.7963C13.4816 12.9023 13.2577 12.9966 13.0339 13.1026ZM16.8335 13.7801C16.3033 13.8213 15.8261 13.2735 16.2738 12.7668C16.1442 13.3618 16.9218 13.5503 17.2164 13.0967C17.2989 12.9671 17.2517 12.8199 17.181 12.6844C17.2989 12.761 17.3872 12.8729 17.4343 13.0084C17.6052 13.4914 17.0455 13.7447 16.8217 13.7742L16.8335 13.7801ZM18.6184 12.2661C18.6184 12.1837 18.6773 12.113 18.7598 12.113C18.7657 12.113 18.7657 12.113 18.7716 12.113C18.854 12.113 18.9247 12.1778 18.9247 12.2661C18.9247 12.3486 18.8599 12.4193 18.7716 12.4193C18.6891 12.4193 18.6184 12.3545 18.6184 12.2661ZM6.63053 13.4973C5.54661 13.6092 5.27564 15.0584 5.81759 15.4177C6.05912 15.5945 6.35366 15.671 6.65409 15.6416C7.69677 15.5297 8.00899 14.1512 7.44347 13.7388C7.20194 13.568 6.91918 13.4855 6.63053 13.4973ZM7.2314 9.4503C2.50105 12.3663 -0.450268 14.9406 0.0563452 15.9361C0.0681269 15.9715 0.0857994 16.0068 0.115254 16.0304C0.610085 16.643 2.64243 16.3956 5.5584 15.5002C5.28742 15.2528 5.12247 14.9052 5.1048 14.5341C3.85594 14.7108 3.0489 14.6048 2.81915 14.1512C2.43625 13.3677 3.99143 11.7242 6.73067 9.79197C6.89562 9.68005 7.06056 9.56223 7.2314 9.4503ZM6.44791 7.60647C6.47148 7.04095 5.92952 6.90546 5.68799 6.97026C5.25796 7.08218 5.05178 7.3296 5.01055 7.75963C4.95753 7.96581 5.04589 8.17788 5.2344 8.27802C5.39934 8.38995 5.60552 8.43119 5.79992 8.38995C6.16515 8.31337 6.43613 7.98937 6.44791 7.60647ZM21.5874 2.35772C24.8097 1.29737 27.113 1.02639 27.5136 1.81577C27.9731 2.70529 25.8818 4.73763 22.4121 6.98793V6.96437V6.94669C22.1765 2.88201 18.6891 -0.228358 14.6244 0.0131669C10.5597 0.254692 7.44936 3.73618 7.68499 7.80087C7.80281 9.83321 8.75123 11.7242 10.3123 13.026L10.33 13.0437H10.3418C10.3418 13.0437 10.3418 13.0496 10.3418 13.0555C9.46992 13.3854 8.65109 13.6564 7.88528 13.892C7.96775 14.0687 8.00899 14.2631 8.0031 14.4575C8.0031 14.5341 7.99132 14.6048 7.97953 14.6814C8.91029 14.3279 9.90584 13.9391 10.9426 13.5091C12.7393 12.7551 14.6598 11.8773 16.6332 10.8877C18.7127 9.85088 20.6625 8.78464 22.418 7.74785C27.5784 4.67872 30.9421 1.89235 30.6357 0.761305C30.6239 0.714178 30.6122 0.690616 30.6004 0.65527C30.0938 -0.357955 26.2588 0.466764 21.0749 2.52267C21.2398 2.46376 21.4048 2.41663 21.5697 2.35772C21.5815 2.34594 21.5815 2.34594 21.5933 2.34594L21.5874 2.35772ZM15.349 6.14554C15.184 6.14554 15.0427 6.01005 15.0427 5.8451V5.83921C15.0544 5.66838 15.2017 5.54467 15.3667 5.55056C15.5198 5.56234 15.6435 5.68016 15.6553 5.83921C15.6553 6.00416 15.5198 6.14554 15.349 6.14554ZM20.0617 5.73907C19.9792 5.45631 19.7141 5.35616 19.4254 5.28547C19.6788 5.20889 19.9497 5.22067 20.1971 5.31493C21.1043 5.66249 20.7862 6.77586 20.5624 7.12342C19.9733 7.93046 18.6125 7.93636 18.4417 6.69339C19.1368 7.58291 20.3503 6.71695 20.0617 5.73907ZM13.4757 10.2573C13.4816 10.0924 13.6171 9.95691 13.782 9.95102C13.947 9.95102 14.0883 10.0865 14.0883 10.2515V10.2573C14.0883 10.4223 13.9529 10.5578 13.782 10.5637C13.6171 10.5637 13.4816 10.4282 13.4757 10.2573ZM10.4949 5.83921C10.4949 5.92169 10.4242 5.99238 10.3418 5.99238C10.2593 5.99238 10.1886 5.92169 10.1886 5.83921C10.1886 5.75674 10.2593 5.68605 10.3418 5.68605C10.4242 5.68605 10.489 5.74496 10.4949 5.82743C10.4949 5.83332 10.4949 5.83332 10.4949 5.83921ZM9.71733 7.77141C10.2416 7.22945 11.2666 7.36494 11.2666 8.31926C10.8425 7.57112 9.83515 8.09541 9.95297 8.86122C9.98831 9.08507 10.1768 9.18522 10.3771 9.26769C10.1768 9.29714 9.97653 9.2618 9.79981 9.16754C9.1577 8.8082 9.51115 8.00705 9.71733 7.77141ZM12.2799 3.64193C11.9559 3.64193 11.6908 3.37684 11.6908 3.05285C11.6908 2.72885 11.9559 2.46376 12.2799 2.46376C12.6038 2.46376 12.8689 2.72885 12.8689 3.05285C12.8689 3.37684 12.6156 3.63604 12.2916 3.64193C12.2857 3.64193 12.2799 3.64193 12.2799 3.64193ZM16.0147 2.8879C15.9204 2.70528 15.8851 2.4991 15.9145 2.29881C16.0441 1.56246 16.9218 1.63315 17.2223 1.74508C17.9233 2.06907 18.1354 3.08819 17.2223 3.41219C17.7937 2.75241 16.9513 1.96893 16.2621 2.34005C16.0618 2.44609 16.0264 2.65816 16.0088 2.88201H16.0147V2.8879Z" fill="#FE8F01"/>
</svg>
