<svg width="20" height="20" viewBox="0 0 20 20" fill="none" xmlns="http://www.w3.org/2000/svg">
    <path
        d="M18.5691 12.8245C17.3121 17.8666 12.2053 20.9351 7.16266 19.6777C2.12211 18.4207 -0.946396 13.3136 0.311165 8.27196C1.56762 3.22934 6.67442 0.16061 11.7155 1.41762C16.7578 2.67463 19.8261 7.7823 18.569 12.8246L18.5691 12.8245H18.5691Z"
        fill="#F7931A" />
    <path
        d="M13.6063 9.19949C13.7937 7.94699 12.8401 7.27372 11.5362 6.82459L11.9592 5.12797L10.9264 4.87062L10.5146 6.52257C10.2431 6.45486 9.96425 6.39105 9.68712 6.32779L10.1019 4.66494L9.06975 4.40759L8.64652 6.10366C8.42183 6.05251 8.20115 6.00195 7.98705 5.94868L7.98825 5.94334L6.56402 5.58768L6.28928 6.69076C6.28928 6.69076 7.05552 6.86641 7.03937 6.87722C7.45759 6.9816 7.53322 7.25845 7.52067 7.47789L7.03882 9.41074C7.06762 9.41806 7.10497 9.42864 7.14619 9.4452C7.11174 9.43664 7.07507 9.4273 7.03703 9.41819L6.36164 12.1258C6.31053 12.2529 6.1808 12.4436 5.8884 12.3712C5.89875 12.3862 5.13776 12.1839 5.13776 12.1839L4.625 13.3661L5.969 13.7011C6.21903 13.7638 6.46405 13.8294 6.70534 13.8911L6.27796 15.6072L7.30955 15.8645L7.73279 14.1667C8.01461 14.2432 8.2881 14.3137 8.55584 14.3803L8.13403 16.0701L9.16687 16.3275L9.5942 14.6146C11.3553 14.9479 12.6795 14.8135 13.2369 13.2206C13.6861 11.9381 13.2146 11.1984 12.288 10.716C12.9629 10.5603 13.4712 10.1165 13.6067 9.19963L13.6064 9.1994L13.6063 9.19949ZM11.2467 12.5084C10.9275 13.7909 8.76815 13.0976 8.06807 12.9237L8.6352 10.6502C9.33524 10.825 11.5802 11.1708 11.2467 12.5084H11.2467ZM11.5661 9.1809C11.2749 10.3475 9.47767 9.7548 8.89466 9.60948L9.40885 7.54754C9.99185 7.69287 11.8694 7.9641 11.5662 9.1809H11.5661Z"
        fill="white" />
</svg>