<svg width="12" height="16" viewBox="0 0 12 16" fill="none" xmlns="http://www.w3.org/2000/svg">
    <g clip-path="url(#clip0_4245_389348)">
        <path
            d="M0.74939 8.71351C2.48991 9.63784 4.30611 10.6054 5.70887 11.354L10.6278 8.71351C8.8467 11.3594 7.36271 13.5622 5.70887 16C4.05208 13.5675 2.22237 10.8835 0.74939 8.71351ZM0.93857 7.98368L5.71424 5.43534L10.4278 7.96504L5.71693 10.5162L0.93857 7.98368ZM5.70887 4.61889L0.74939 7.22971L5.68723 0L10.6278 7.2459L5.70887 4.61889Z"
            fill="#3AB83A" />
        <path
            d="M5.70877 11.354L10.6277 8.71351C8.84665 11.3594 5.70877 16 5.70877 16V11.354ZM5.71415 5.43534L10.4277 7.96504L5.71684 10.5162L5.71415 5.43534ZM5.70877 4.61908L5.68713 0L10.6277 7.2459L5.70877 4.61908Z"
            fill="#0B8311" />
        <path
            d="M0.938721 7.98373L5.71465 8.37566L10.4282 7.96753L5.71708 10.5189L0.938721 7.98373Z"
            fill="#0B8311" />
        <path d="M5.71448 8.37566L10.428 7.96753L5.71717 10.5189L5.71448 8.37566Z" fill="#146714" />
    </g>
    <defs>
        <clipPath id="clip0_4245_389348">
            <rect width="11" height="16" fill="white" transform="translate(0.549194)" />
        </clipPath>
    </defs>
</svg>
    