<svg width="17" height="16" viewBox="0 0 17 16" fill="none" xmlns="http://www.w3.org/2000/svg">
    <g clip-path="url(#clip0_4245_390994)">
        <path
            d="M15.6219 4.99822C14.916 4.34645 13.9396 3.35116 13.1443 2.64528L13.0972 2.61234C13.0189 2.54946 12.9306 2.50015 12.836 2.46645C10.9184 2.10881 1.99368 0.440571 1.81957 0.461748C1.77078 0.468581 1.72414 0.48627 1.6831 0.513512L1.63839 0.548807C1.58334 0.604713 1.54153 0.672252 1.51604 0.746454L1.50427 0.777042V0.944101V0.969983C2.50898 3.76763 6.47604 12.9323 7.25721 15.0829C7.30427 15.2288 7.39368 15.5065 7.56074 15.5206H7.59839C7.6878 15.5206 8.06898 15.017 8.06898 15.017C8.06898 15.017 14.8831 6.75351 15.5725 5.87351C15.6617 5.76511 15.7405 5.64852 15.8078 5.52528C15.825 5.42885 15.8169 5.32962 15.7843 5.23726C15.7517 5.14489 15.6958 5.06254 15.6219 4.99822ZM9.81721 5.96057L12.7255 3.54881L14.4313 5.12057L9.81721 5.96057ZM8.6878 5.80292L3.68074 1.69939L11.7819 3.19351L8.6878 5.80292ZM9.13957 6.87822L14.2643 6.05234L8.40545 13.1112L9.13957 6.87822ZM3.00074 2.10881L8.26898 6.57939L7.50663 13.1159L3.00074 2.10881Z"
            fill="#FF060A" />
    </g>
    <defs>
        <clipPath id="clip0_4245_390994">
            <rect width="16" height="16" fill="white" transform="translate(0.697144 0.000244141)" />
        </clipPath>
    </defs>
</svg>
    