<svg width="17" height="16" viewBox="0 0 17 16" fill="none" xmlns="http://www.w3.org/2000/svg">
    <g clip-path="url(#clip0_4245_391028)">
        <path
            d="M8.69335 15.5205C12.8659 15.5205 16.2228 12.1637 16.2228 7.99108C16.2228 3.81851 12.8659 0.46167 8.69335 0.46167C4.52078 0.46167 1.16394 3.81851 1.16394 7.99108C1.16394 12.1637 4.52078 15.5205 8.69335 15.5205Z"
            fill="#2775CA" />
        <path
            d="M10.764 9.18308C10.764 8.08506 10.1052 7.70859 8.78758 7.55175C7.84641 7.42623 7.65818 7.17528 7.65818 6.73601C7.65818 6.29674 7.97193 6.01446 8.59934 6.01446C9.16404 6.01446 9.47779 6.2027 9.63462 6.67329C9.66602 6.76741 9.76014 6.83013 9.85425 6.83013H10.3562C10.4817 6.83013 10.5758 6.73601 10.5758 6.61057V6.57917C10.4503 5.88895 9.88558 5.35564 9.16404 5.29292V4.53997C9.16404 4.41446 9.06993 4.32034 8.91309 4.28894H8.44251C8.31699 4.28894 8.22288 4.38306 8.19148 4.53997V5.26152C7.25032 5.38703 6.6543 6.01446 6.6543 6.7988C6.6543 7.8341 7.28171 8.2419 8.59934 8.39881C9.47779 8.55565 9.76014 8.74389 9.76014 9.24587C9.76014 9.74786 9.32088 10.0929 8.72486 10.0929C7.90913 10.0929 7.62678 9.74779 7.53267 9.27719C7.50134 9.15175 7.40723 9.08896 7.31311 9.08896H6.77974C6.6543 9.08896 6.56018 9.18308 6.56018 9.30859V9.33999C6.68562 10.1243 7.1876 10.689 8.22288 10.8459V11.5988C8.22288 11.7243 8.31699 11.8184 8.47383 11.8498H8.94441C9.06993 11.8498 9.16404 11.7557 9.19544 11.5988V10.8459C10.1366 10.689 10.764 10.0301 10.764 9.18308Z"
            fill="white" />
        <path
            d="M7.09411 12.4774C4.64706 11.599 3.39213 8.8696 4.30198 6.45387C4.77257 5.13622 5.80787 4.13232 7.09411 3.66173C7.21963 3.59901 7.28235 3.5049 7.28235 3.34798V2.90879C7.28235 2.78328 7.21963 2.68916 7.09411 2.65784C7.06272 2.65784 7 2.65784 6.9686 2.68916C3.98823 3.63034 2.35683 6.79901 3.29801 9.77938C3.86272 11.5362 5.21176 12.8853 6.9686 13.45C7.09411 13.5127 7.21963 13.45 7.25095 13.3245C7.28235 13.2931 7.28235 13.2617 7.28235 13.199V12.7597C7.28235 12.6656 7.18823 12.5402 7.09411 12.4774ZM10.4196 2.68916C10.2941 2.62644 10.1686 2.68916 10.1373 2.81467C10.1059 2.84607 10.1059 2.87739 10.1059 2.94019V3.37938C10.1059 3.5049 10.2 3.63034 10.2941 3.69313C12.7412 4.57151 13.9961 7.30092 13.0862 9.71666C12.6157 11.0343 11.5804 12.0382 10.2941 12.5088C10.1686 12.5715 10.1059 12.6656 10.1059 12.8225V13.2617C10.1059 13.3872 10.1686 13.4814 10.2941 13.5127C10.3255 13.5127 10.3882 13.5127 10.4196 13.4814C13.4 12.5402 15.0314 9.37151 14.0902 6.39115C13.5255 4.60291 12.1451 3.25387 10.4196 2.68916Z"
            fill="white" />
    </g>
    <defs>
        <clipPath id="clip0_4245_391028">
            <rect width="16" height="16" fill="white" transform="translate(0.814697 0.000244141)" />
        </clipPath>
    </defs>
</svg>
    